<svg version="1.1" id="Layer_1" xmlns="http://www.w3.org/2000/svg" xmlns:xlink="http://www.w3.org/1999/xlink" x="0px" y="0px"
	 width="100%" viewBox="0 0 512 512" enable-background="new 0 0 512 512" xml:space="preserve">
<path fill="#574AE8" opacity="1.000000" stroke="none" 
	d="
M0.999999,206.000000 
	C1.000000,190.312439 1.000000,174.624878 1.383699,158.352127 
	C2.177334,156.921234 2.855106,156.106613 2.957358,155.225235 
	C4.716720,140.060135 9.356629,125.711250 15.625381,111.904625 
	C25.996086,89.063637 41.282623,70.040825 61.457870,55.120682 
	C77.717926,43.095924 96.020393,35.016796 115.754494,31.286730 
	C127.456329,29.074894 139.681137,29.427582 151.684006,29.067244 
	C163.828537,28.702650 175.591324,31.583698 186.899643,35.539852 
	C207.540466,42.760929 225.458069,54.590359 240.677597,70.288887 
	C246.429703,76.222046 251.545837,82.771790 257.082642,89.192085 
	C261.980988,83.352943 266.514008,77.391922 271.625244,71.976669 
	C281.184357,61.849026 292.128143,53.423901 304.135437,46.289722 
	C320.481689,36.577534 338.135040,30.510157 356.939331,29.235874 
	C372.940033,28.151579 388.989380,28.683611 404.877563,32.848618 
	C435.732758,40.937145 460.968597,57.433853 480.535675,82.264877 
	C495.783752,101.614944 505.343536,123.849617 509.998505,148.109360 
	C511.014313,153.403290 512.000305,158.702957 513.000000,164.000000 
	C513.000000,176.020889 513.000000,188.041794 512.603821,200.681381 
	C511.796661,205.536697 511.796478,209.861755 510.906464,213.995224 
	C506.061493,236.496750 497.393341,257.575378 485.283569,277.050507 
	C471.791870,298.748108 455.025909,317.972931 437.177216,336.162659 
	C426.536774,347.006378 415.247040,357.232025 403.972351,367.429443 
	C390.224854,379.863403 376.250763,392.049744 362.256256,404.206940 
	C348.422791,416.224152 334.416595,428.042358 320.532349,440.001465 
	C305.641113,452.827972 291.056915,466.027435 275.833405,478.444580 
	C268.480804,484.441772 259.639862,486.545380 249.824280,484.133972 
	C240.113983,481.748383 233.636993,474.811798 226.522049,468.864655 
	C209.568039,454.693329 192.953415,440.115906 176.200562,425.703888 
	C161.931290,413.428345 147.468353,401.369446 133.439743,388.824829 
	C116.606995,373.772644 100.042488,358.415161 83.574753,342.962982 
	C77.677574,337.429443 72.155800,331.444489 66.893471,325.296844 
	C57.028122,313.771759 46.995152,302.339172 37.900982,290.216156 
	C21.817541,268.776093 10.512274,244.920929 4.317908,218.742859 
	C3.307467,214.472641 2.110664,210.246506 0.999999,206.000000 
z"/>
<path fill="#FFFFFF" opacity="1.000000" stroke="none" 
	d="
M0.999999,206.468658 
	C2.110664,210.246506 3.307467,214.472641 4.317908,218.742859 
	C10.512274,244.920929 21.817541,268.776093 37.900982,290.216156 
	C46.995152,302.339172 57.028122,313.771759 66.893471,325.296844 
	C72.155800,331.444489 77.677574,337.429443 83.574753,342.962982 
	C100.042488,358.415161 116.606995,373.772644 133.439743,388.824829 
	C147.468353,401.369446 161.931290,413.428345 176.200562,425.703888 
	C192.953415,440.115906 209.568039,454.693329 226.522049,468.864655 
	C233.636993,474.811798 240.113983,481.748383 249.824280,484.133972 
	C259.639862,486.545380 268.480804,484.441772 275.833405,478.444580 
	C291.056915,466.027435 305.641113,452.827972 320.532349,440.001465 
	C334.416595,428.042358 348.422791,416.224152 362.256256,404.206940 
	C376.250763,392.049744 390.224854,379.863403 403.972351,367.429443 
	C415.247040,357.232025 426.536774,347.006378 437.177216,336.162659 
	C455.025909,317.972931 471.791870,298.748108 485.283569,277.050507 
	C497.393341,257.575378 506.061493,236.496750 510.906464,213.995224 
	C511.796478,209.861755 511.796661,205.536697 512.603821,201.150040 
	C513.000000,304.959747 513.000000,408.919525 513.000000,512.939636 
	C342.439667,512.939636 171.879272,512.939636 1.000000,512.939636 
	C1.000000,410.979340 1.000000,308.958313 0.999999,206.468658 
z"/>
<path fill="#FFFFFF" opacity="1.000000" stroke="none" 
	d="
M513.000000,163.531342 
	C512.000305,158.702957 511.014313,153.403290 509.998505,148.109360 
	C505.343536,123.849617 495.783752,101.614944 480.535675,82.264877 
	C460.968597,57.433853 435.732758,40.937145 404.877563,32.848618 
	C388.989380,28.683611 372.940033,28.151579 356.939331,29.235874 
	C338.135040,30.510157 320.481689,36.577534 304.135437,46.289722 
	C292.128143,53.423901 281.184357,61.849026 271.625244,71.976669 
	C266.514008,77.391922 261.980988,83.352943 257.082642,89.192085 
	C251.545837,82.771790 246.429703,76.222046 240.677597,70.288887 
	C225.458069,54.590359 207.540466,42.760929 186.899643,35.539852 
	C175.591324,31.583698 163.828537,28.702650 151.684006,29.067244 
	C139.681137,29.427582 127.456329,29.074894 115.754494,31.286730 
	C96.020393,35.016796 77.717926,43.095924 61.457870,55.120682 
	C41.282623,70.040825 25.996086,89.063637 15.625381,111.904625 
	C9.356629,125.711250 4.716720,140.060135 2.957358,155.225235 
	C2.855106,156.106613 2.177334,156.921234 1.383699,157.883469 
	C1.000000,105.694176 1.000000,53.388359 1.000000,1.041268 
	C171.549423,1.041268 342.098877,1.041268 513.000000,1.041268 
	C513.000000,55.020386 513.000000,109.041534 513.000000,163.531342 
z"/>
</svg>